<svg xmlns="http://www.w3.org/2000/svg" viewBox="0 0 32 32" fill="none">
  <!-- Calendar background -->
  <rect x="4" y="6" width="24" height="22" rx="3" fill="#ffffff" stroke="#2c3e50" stroke-width="1.5"/>
  
  <!-- Calendar header -->
  <rect x="4" y="6" width="24" height="6" rx="3" fill="#e74c3c"/>
  <rect x="4" y="9" width="24" height="3" fill="#e74c3c"/>
  
  <!-- Calendar rings -->
  <circle cx="10" cy="4" r="1.5" fill="none" stroke="#2c3e50" stroke-width="1.5"/>
  <circle cx="22" cy="4" r="1.5" fill="none" stroke="#2c3e50" stroke-width="1.5"/>
  
  <!-- Calendar grid -->
  <g fill="#2c3e50">
    <!-- Week days dots -->
    <circle cx="8" cy="16" r="1"/>
    <circle cx="12" cy="16" r="1"/>
    <circle cx="16" cy="16" r="1"/>
    <circle cx="20" cy="16" r="1"/>
    <circle cx="24" cy="16" r="1"/>
    
    <!-- Second week -->
    <circle cx="8" cy="20" r="1"/>
    <circle cx="12" cy="20" r="1"/>
    <!-- Highlighted event day in center -->
    <circle cx="16" cy="20" r="2" fill="#e74c3c"/>
    <circle cx="20" cy="20" r="1"/>
    <circle cx="24" cy="20" r="1"/>
    
    <!-- Third week -->
    <circle cx="8" cy="24" r="1"/>
    <circle cx="12" cy="24" r="1"/>
    <circle cx="16" cy="24" r="1"/>
    <circle cx="20" cy="24" r="1"/>
    <circle cx="24" cy="24" r="1"/>
  </g>
</svg>
